<svg width="64" height="64" viewBox="0 0 64 64" fill="none" xmlns="http://www.w3.org/2000/svg">
<path d="M1.80139 8.62439C0 12.0922 0 16.6481 0 25.76V38.24C0 47.3519 0 51.9078 1.80139 55.3756C3.3194 58.2979 5.70212 60.6806 8.6244 62.1986C12.0922 64 16.6481 64 25.76 64H38.24C47.3519 64 51.9078 64 55.3756 62.1986C58.2979 60.6806 60.6806 58.2979 62.1986 55.3756C64 51.9078 64 47.3519 64 38.24V25.76C64 16.6481 64 12.0922 62.1986 8.62439C60.6806 5.70215 58.2979 3.3194 55.3756 1.80139C51.9078 0 47.3519 0 38.24 0H25.76C16.6481 0 12.0922 0 8.6244 1.80139C5.70212 3.3194 3.3194 5.70215 1.80139 8.62439Z" fill="#FF00FF"/>
</svg>
